<?xml version="1.0" standalone="no"?><svg xmlns="http://www.w3.org/2000/svg" viewBox="0 0 1440 320"><path fill="#0099ff" fill-opacity="0.5" d="M0,160L24,133.3C48,107,96,53,144,26.7C192,0,240,0,288,16C336,32,384,64,432,80C480,96,528,96,576,85.3C624,75,672,53,720,69.3C768,85,816,139,864,165.3C912,192,960,192,1008,186.7C1056,181,1104,171,1152,181.3C1200,192,1248,224,1296,224C1344,224,1392,192,1416,176L1440,160L1440,320L1416,320C1392,320,1344,320,1296,320C1248,320,1200,320,1152,320C1104,320,1056,320,1008,320C960,320,912,320,864,320C816,320,768,320,720,320C672,320,624,320,576,320C528,320,480,320,432,320C384,320,336,320,288,320C240,320,192,320,144,320C96,320,48,320,24,320L0,320Z"></path></svg>