<?xml version="1.0" standalone="no"?><svg xmlns="http://www.w3.org/2000/svg" viewBox="0 0 1440 320"><path fill="#0099ff" fill-opacity="0.5" d="M0,192L26.7,202.7C53.3,213,107,235,160,213.3C213.3,192,267,128,320,117.3C373.3,107,427,149,480,160C533.3,171,587,149,640,149.3C693.3,149,747,171,800,192C853.3,213,907,235,960,234.7C1013.3,235,1067,213,1120,202.7C1173.3,192,1227,192,1280,186.7C1333.3,181,1387,171,1413,165.3L1440,160L1440,0L1413.3,0C1386.7,0,1333,0,1280,0C1226.7,0,1173,0,1120,0C1066.7,0,1013,0,960,0C906.7,0,853,0,800,0C746.7,0,693,0,640,0C586.7,0,533,0,480,0C426.7,0,373,0,320,0C266.7,0,213,0,160,0C106.7,0,53,0,27,0L0,0Z"></path></svg>